PathFileType	4	(X/Y/Z)	/Users/niels/Desktop/University/Third Semester/Perception and Action/Exam/Gymnastics Motion Tracking/Code for Gym Tracking/Analyzed Data/Webcam_Backflip/id1_2_trajectory_Sports2D/id1_2_trajectory_Sports2D_px_person00.trc
DataRate	CameraRate	NumFrames	NumMarkers	Units	OrigDataRate	OrigDataStartFrame	OrigNumFrames
29.92822966507177	29.92822966507177	11	22	m	29.92822966507177	156	418
Frame#	Time	Hip			RHip			RKnee			RAnkle			RBigToe			RSmallToe			RHeel			LHip			LKnee			LAnkle			LBigToe			LSmallToe			LHeel			Neck			Head			Nose			RShoulder			RElbow			RWrist			LShoulder			LElbow			LWrist		
		X1	Y1	Z1	X2	Y2	Z2	X3	Y3	Z3	X4	Y4	Z4	X5	Y5	Z5	X6	Y6	Z6	X7	Y7	Z7	X8	Y8	Z8	X9	Y9	Z9	X10	Y10	Z10	X11	Y11	Z11	X12	Y12	Z12	X13	Y13	Z13	X14	Y14	Z14	X15	Y15	Z15	X16	Y16	Z16	X17	Y17	Z17	X18	Y18	Z18	X19	Y19	Z19	X20	Y20	Z20	X21	Y21	Z21	X22	Y22	Z22
156	5.212470023980815	0.8216476373195368	-0.6113031775574882	0.0	0.7914996970970272	-0.6180140624164822	0.0	0.790872209944124	-0.8426711994458373	0.0	0.7636067326248194	-1.0490066619379546	0.0	0.855021953255394	-1.0707967711663353	0.0	0.8263485916931804	-1.0800266159245466	0.0	0.7412631547664605	-1.0698803151512795	0.0	0.853269849688038	-0.6083537924123159	0.0	0.8311188422181065	-0.8231957099435384	0.0	0.7816837866599653	-1.021409098381024	0.0	0.8734955843887012	-1.0323327121351196	0.0	0.8664684606960155	-1.0208227837748538	0.0	0.7539645933838143	-1.0338717426633721	0.0	0.8523589674083561	-0.28305390320262575	0.0	0.8865404872833801	-0.12745664523338088	0.0	0.8929133909662984	-0.22149428951662614	0.0	0.770024065992741	-0.33945650869807553	0.0	0.7203094769646583	-0.518690143595356	0.0	0.7394700814925285	-0.6794990941677259	0.0	0.9147036352362435	-0.3147258477304269	0.0	0.9169714703399795	-0.4518857388613241	0.0	0.9200083467098714	-0.5584069680469909	0.0
157	5.245883293365308	0.8222031660425284	-0.6120960405020065	0.0	0.7918471203121442	-0.6190836415408084	0.0	0.7911889294378875	-0.842833603034278	0.0	0.7637095776307039	-1.048256998860942	0.0	0.8548128332981949	-1.0704971637458023	0.0	0.8258813720908954	-1.0795713971996126	0.0	0.7409014223939197	-1.0698317697536432	0.0	0.8537906368017721	-0.6097375037795392	0.0	0.8289509560060498	-0.8234865881529163	0.0	0.779154862257704	-1.0235200569748724	0.0	0.8707746992298685	-1.0366695043787575	0.0	0.8637924518893468	-1.0257913211465692	0.0	0.7512055086474086	-1.037607751411555	0.0	0.8528293585832275	-0.28454481298818873	0.0	0.8857183469821116	-0.12916888515667305	0.0	0.8917830605489876	-0.22286742333782386	0.0	0.7693781346320069	-0.3413554123936461	0.0	0.7182016602363863	-0.5200707777008148	0.0	0.7359579316534093	-0.6818566113992058	0.0	0.9163526464054721	-0.3162075056881776	0.0	0.919357055221946	-0.45191510474153035	0.0	0.9228467292702114	-0.55794044887949	0.0
158	5.2792965627498	0.822758641003576	-0.6126716862129336	0.0	0.792204860034968	-0.620047222569719	0.0	0.7916243347007738	-0.8425725187164989	0.0	0.7637557893333957	-1.0472696913615924	0.0	0.8550028940380209	-1.069721447112457	0.0	0.8259252581870529	-1.078834321299148	0.0	0.740448884251237	-1.0696093471745132	0.0	0.854199985966901	-0.6110306736505012	0.0	0.8268323833199628	-0.8234083521080425	0.0	0.7763933902935521	-1.024951002751841	0.0	0.8681153133001152	-1.0402522785537072	0.0	0.8609770051674189	-1.0299097603154654	0.0	0.7476493938484498	-1.0405874016207324	0.0	0.8529958107453941	-0.28569988133662144	0.0	0.8846010059670816	-0.13080795140467247	0.0	0.8905268631333055	-0.22399270938158627	0.0	0.7686765948178329	-0.3429266719501304	0.0	0.7163147169570845	-0.521125979133499	0.0	0.7324107339290395	-0.6835870995794722	0.0	0.9176935394265242	-0.3177882886549425	0.0	0.9210115425117655	-0.4518943891296461	0.0	0.9250118018160979	-0.5574980011414532	0.0
159	5.312709832134292	0.8231136604227939	-0.613189242984803	0.0	0.7923331732687374	-0.6208805204849868	0.0	0.792041057274899	-0.8422001156724914	0.0	0.7637713445325546	-1.046227880612104	0.0	0.8555889402491889	-1.0687432174980542	0.0	0.8263544083623227	-1.0780961383303092	0.0	0.7399891882233712	-1.0692880780520893	0.0	0.854560822456329	-0.6120706892811104	0.0	0.825333047857826	-0.8230551623965078	0.0	0.7739872913686501	-1.0255583330509017	0.0	0.8659940899253273	-1.0425593146129208	0.0	0.8585544791009972	-1.0326762084675964	0.0	0.7442998326051175	-1.0424537826798075	0.0	0.8528213663911486	-0.28661226884375307	0.0	0.8833305028467974	-0.1322530863940666	0.0	0.8892701955825818	-0.22500485653355043	0.0	0.7678200279994486	-0.34439027666721156	0.0	0.7146965312557942	-0.5221189431666753	0.0	0.7289436342173322	-0.6848891916817375	0.0	0.9188085739826156	-0.31914729160852967	0.0	0.9222816754622051	-0.4517202918204464	0.0	0.9266141495562932	-0.5571303804845795	0.0
160	5.346123101518785	0.8231356315286826	-0.6137495953790411	0.0	0.7921078432767069	-0.6215359562415465	0.0	0.7923731085393838	-0.8420290524793654	0.0	0.7637842281573569	-1.045258230214933	0.0	0.8562909545460116	-1.0678723171109743	0.0	0.8268329876060254	-1.0775828285772269	0.0	0.7396258606647177	-1.068913186941197	0.0	0.8548912538341122	-0.6127386839033625	0.0	0.8247097515693322	-0.8225156631683949	0.0	0.7723097208632076	-1.025361921490539	0.0	0.8645618401195777	-1.043309173882169	0.0	0.8568527292252538	-1.0336912286507711	0.0	0.741787341040344	-1.0430678519111285	0.0	0.8523089206367318	-0.28737201775789467	0.0	0.88196971245876	-0.13338807354926344	0.0	0.8880232954225105	-0.2259900021101525	0.0	0.7667746810251702	-0.3459572002702424	0.0	0.7133008565214018	-0.5233446034985333	0.0	0.7256959320374942	-0.6860078951553357	0.0	0.9196231069390213	-0.32000051111398314	0.0	0.9231954109954849	-0.4513694890467453	0.0	0.927803667311266	-0.5568852548048281	0.0
161	5.379536370903278	0.8228629014258698	-0.6143369654066433	0.0	0.791588963383728	-0.6219943696797187	0.0	0.7926131862420979	-0.8421223438611701	0.0	0.7638001940760155	-1.0443969960804347	0.0	0.8567006557183455	-1.0672378467650492	0.0	0.8269994084489992	-1.0773150102073124	0.0	0.739409760760418	-1.0684718680068932	0.0	0.8551989530244832	-0.6130331512042795	0.0	0.8248923045985067	-0.8218456583290831	0.0	0.7714298312124296	-1.0244364011348013	0.0	0.8636933444930581	-1.042460435646453	0.0	0.8559042694837826	-1.0327412047042062	0.0	0.7402219645985347	-1.042471218265039	0.0	0.8514782366551411	-0.288022762674856	0.0	0.8805107553849791	-0.1341512060752181	0.0	0.8867167705079565	-0.22693132105094432	0.0	0.7656048580165555	-0.34767244154614424	0.0	0.7120067687117495	-0.5249282136914916	0.0	0.7228264382583276	-0.6870690375083421	0.0	0.9200132629293133	-0.3202388505925393	0.0	0.9236861316871281	-0.4509127095765368	0.0	0.9286942298703388	-0.5567616017997282	0.0
162	5.41294964028777	0.8224783384927794	-0.6148277527680215	0.0	0.7909626555075011	-0.6222566279772267	0.0	0.7927386839068881	-0.8423500831700926	0.0	0.763837848868183	-1.0436928852415126	0.0	0.8565798097687747	-1.0668632479426328	0.0	0.826675197713299	-1.0772307017452614	0.0	0.739311260925559	-1.0679953590641154	0.0	0.8555529895303458	-0.613007572273745	0.0	0.825580184778525	-0.8210903862574376	0.0	0.7712095970643977	-1.023029554488408	0.0	0.863201959538624	-1.0404781847816325	0.0	0.8555420069685628	-1.0302386056504742	0.0	0.7394368214228292	-1.0410416362814505	0.0	0.8503813577040857	-0.28858840089192084	0.0	0.8789373258152194	-0.13454611721615758	0.0	0.8852997853549621	-0.22775856512946455	0.0	0.7643827202249824	-0.34944657131949597	0.0	0.7107140224488289	-0.5267644672337378	0.0	0.7204753173373195	-0.6880719769032374	0.0	0.9199763838680884	-0.31989751207642564	0.0	0.9238423827873417	-0.45038643678368073	0.0	0.9293185213784998	-0.5567115947981863	0.0
163	5.446362909672262	0.822149256934203	-0.6151318771015611	0.0	0.7904023063324473	-0.6223681058462321	0.0	0.7926872435355498	-0.842667586899012	0.0	0.7639691439527556	-1.0432813735391144	0.0	0.8559959892764328	-1.0667769281604058	0.0	0.8259397733493258	-1.0773142238155893	0.0	0.7393087771242481	-1.0676344729002194	0.0	0.8560318575871824	-0.6127435762411094	0.0	0.8263764663474041	-0.8203267361641714	0.0	0.7714385349674806	-1.0216328670421246	0.0	0.8629399591767846	-1.0381656815829647	0.0	0.8555128627401569	-1.0271284486584815	0.0	0.7392245727178951	-1.0394154885337714	0.0	0.8491256123232348	-0.2891019555708689	0.0	0.8772843701274772	-0.13462006693123676	0.0	0.8837752489721483	-0.22839248143376625	0.0	0.7631264004376973	-0.3511551355754918	0.0	0.709426932593022	-0.5286200600879359	0.0	0.7187456623758169	-0.6889789303667266	0.0	0.919614187278284	-0.31907387538242005	0.0	0.9238137380914349	-0.44971533697610905	0.0	0.9296463724859788	-0.5566776987596319	0.0
164	5.4797761790567545	0.8218314238512471	-0.6152791223987313	0.0	0.7899167855216837	-0.62243073432366	0.0	0.7923993355507157	-0.8431778964457326	0.0	0.7642399865357362	-1.0433012540303104	0.0	0.8552142659471985	-1.0669552341454067	0.0	0.8250334063587896	-1.0775422592892272	0.0	0.739445320728843	-1.0675586084664603	0.0	0.8564795604335106	-0.6123856065973492	0.0	0.8268861810277	-0.8197109241470503	0.0	0.771900700214286	-1.0207878550415301	0.0	0.8627230486667707	-1.0361861911854267	0.0	0.8555169051313833	-1.0243624459736167	0.0	0.7393783096290255	-1.0381820384567457	0.0	0.8478576921718064	-0.2895876576449986	0.0	0.8756595585608147	-0.13443410795117422	0.0	0.8821706082352516	-0.22877128142032668	0.0	0.7618452283671006	-0.3526472472857966	0.0	0.7082148696574267	-0.5302566063760608	0.0	0.717687987604371	-0.6897780941383265	0.0	0.9190278936818325	-0.3179595001219158	0.0	0.923590809819193	-0.44885987696802765	0.0	0.929655070454698	-0.5566222272321695	0.0
165	5.513189448441247	0.8212673302893402	-0.6153499553331927	0.0	0.7893344719100507	-0.6225357536106456	0.0	0.7918460905680128	-0.8439471777858111	0.0	0.7645550704535259	-1.0437293230102394	0.0	0.854508412756174	-1.0672666650327496	0.0	0.8241979529408657	-1.0778489136268194	0.0	0.7397376909016294	-1.0677783281540008	0.0	0.8564471171165858	-0.6121108386338644	0.0	0.8268276380716661	-0.8194292361508284	0.0	0.7724437767827192	-1.020727765102953	0.0	0.8623538725959482	-1.0348295209218117	0.0	0.855302192396933	-1.0225003605753078	0.0	0.7397107496795261	-1.0376120015402694	0.0	0.8467039364052656	-0.2900384111746263	0.0	0.8741799485714359	-0.13404139875595894	0.0	0.8805098143272511	-0.22889220091604412	0.0	0.7605704783161443	-0.3537560875994332	0.0	0.7071166681974608	-0.531495910490395	0.0	0.7172586262692356	-0.6904889122762923	0.0	0.9183075862943025	-0.3168594718327979	0.0	0.9230219523699362	-0.4479795738286447	0.0	0.9293863680327399	-0.5565248895402806	0.0
166	5.546602717825739	0.8202692412789598	-0.6154165072129544	0.0	0.7884814598685411	-0.6227185286009138	0.0	0.7910324763818238	-0.8449293842814071	0.0	0.764716469942251	-1.0443443939079866	0.0	0.854019204898645	-1.067569987858481	0.0	0.8235605582321609	-1.0781835796441717	0.0	0.7401018378489072	-1.068122767617113	0.0	0.8555863154872991	-0.6120487941803627	0.0	0.8261970722941175	-0.8196071032690565	0.0	0.7730907572117658	-1.0212423520961158	0.0	0.8618046436706883	-1.0340970277935153	0.0	0.8548388951812635	-1.0216295597561504	0.0	0.7401475688810114	-1.0376126615467958	0.0	0.8457020125616271	-0.2904134085000396	0.0	0.8728903423452233	-0.13349904959262027	0.0	0.8788127190742375	-0.228828798323943	0.0	0.7593250025003592	-0.35438684560399863	0.0	0.7061239851226067	-0.5322543876033574	0.0	0.7173084577535846	-0.6911195165746721	0.0	0.9175239902784651	-0.3160360351741226	0.0	0.9220427275251782	-0.4473431798671971	0.0	0.9289393906975846	-0.5563950830291374	0.0
